{"title":"Street Fighter Assassin's Fist 2014 WEB-DL XviD-SBT","uid":10265897,"size":1491105872,"categoryP":"video","categoryS":"movies","magnet":"?xt=urn:btih:e18b90c7bbb8062dce4d02f450f4304b4452a8fd&amp;dn=Street+Fighter+Assassin%27s+Fist+2014+WEB-DL+XviD-SBT&amp;tr=udp%3A%2F%2Ftracker.openbittorrent.com%3A80&amp;tr=udp%3A%2F%2Fopen.demonii.com%3A1337&amp;tr=udp%3A%2F%2Ftracker.coppersurfer.tk%3A6969&amp;tr=udp%3A%2F%2Fexodus.desync.com%3A6969","seeders":3,"leechers":0,"uploader":"StoneBoyTony","files":-1,"time":1401524596,"description":"Street Fighter Assassin's Fist 2014 WEB-DL XviD-SBT\n\nI made a complete movie from the mini series, removed watermark and unwanted intros, joined all the parts professionally the job is done enjoy the new reborn Street Fighter Assassin's Fist movie! \n\nGeneral\nEncoder                                  : SBT\nSource                                   : SBT\nSubtitles                                : Hardcoded non-English parts\nComplete name                            : Street.Fighter.Assassin's.Fist.2014.WEB-DL.XviD-SBT.avi\nFormat                                   : AVI\nFormat/Info                              : Audio Video Interleave\nFile size                                : 1.37 GiB\nDuration                                 : 2h 19mn\nOverall bit rate                         : 1 404 Kbps\nWriting library                          : VirtualDub build 35491/release\n\nVideo\nID                                       : 0\nFormat                                   : MPEG-4 Visual\nFormat profile                           : Advanced Simple@L5\nFormat settings, BVOP                    : 2\nFormat settings, QPel                    : No\nFormat settings, GMC                     : No warppoints\nFormat settings, Matrix                  : Default (H.263)\nMuxing mode                              : Packed bitstream\nCodec ID                                 : XVID\nCodec ID/Hint                            : XviD\nDuration                                 : 2h 19mn\nBit rate                                 : 1 239 Kbps\nWidth                                    : 720 pixels\nHeight                                   : 404 pixels\nDisplay aspect ratio                     : 16:9\nFrame rate                               : 23.976 fps\nColor space                              : YUV\nChroma subsampling                       : 4:2:0\nBit depth                                : 8 bits\nScan type                                : Progressive\nCompression mode                         : Lossy\nBits/(Pixel*Frame)                       : 0.178\nStream size                              : 1.21 GiB (88%)\nWriting library                          : XviD 65\n\nAudio\nID                                       : 1\nFormat                                   : MPEG Audio\nFormat version                           : Version 1\nFormat profile                           : Layer 3\nMode                                     : Joint stereo\nMode extension                           : MS Stereo\nCodec ID                                 : 55\nCodec ID/Hint                            : MP3\nDuration                                 : 2h 19mn\nBit rate mode                            : Constant\nBit rate                                 : 160 Kbps\nChannel(s)                               : 2 channels\nSampling rate                            : 48.0 KHz\nCompression mode                         : Lossy\nStream size                              : 160 MiB (11%)\nAlignment                                : Split accross interleaves\nInterleave, duration                     : 13090 ms (313.84 video frames)\nWriting library                          : LAME3.99.5","torrent":{"xt":"urn:btih:e18b90c7bbb8062dce4d02f450f4304b4452a8fd","amp;dn":"Street+Fighter+Assassin%27s+Fist+2014+WEB-DL+XviD-SBT","amp;tr":["udp%3A%2F%2Ftracker.openbittorrent.com%3A80","udp%3A%2F%2Fopen.demonii.com%3A1337","udp%3A%2F%2Ftracker.coppersurfer.tk%3A6969","udp%3A%2F%2Fexodus.desync.com%3A6969"],"infoHash":"e18b90c7bbb8062dce4d02f450f4304b4452a8fd","infoHashBuffer":{"type":"Buffer","data":[225,139,144,199,187,184,6,45,206,77,2,244,80,244,48,75,68,82,168,253]},"announce":[],"urlList":[]}}